<svg width="700" height="700" viewBox="0 0 700 700" fill="none" xmlns="http://www.w3.org/2000/svg">
<path fill-rule="evenodd" clip-rule="evenodd" d="M510.5 117.696C502.13 118.928 501.17 120.155 498.815 132.63C498.018 136.848 497.793 137.065 491.996 139.188C488.698 140.396 484.686 142.086 483.079 142.943C480.243 144.457 479.984 144.39 474.174 140.635C470.883 138.507 467.337 136.767 466.295 136.767C462.998 136.767 459.196 139.416 452.409 146.443C439.956 159.338 439.376 161.14 445 169.491C448.982 175.404 449.056 175.79 446.986 179.795L445.472 182.723L274.236 182.995L103 183.267L96.738 186.159C89.69 189.414 84.335 194.729 81.137 201.645L79 206.267V344.767V483.267L81.137 487.889C84.335 494.805 89.69 500.12 96.738 503.375L103 506.267L182.84 506.562C244.598 506.79 262.582 507.13 262.247 508.062C262.009 508.725 260.756 513.369 259.463 518.382L257.113 527.498L247.469 528.029C233.337 528.808 226.059 532.955 220.729 543.267C218.497 547.586 218.085 549.86 217.701 559.963C217.122 575.22 217.734 578.329 221.804 580.811C224.91 582.704 227.561 582.76 315.601 582.763C379.18 582.766 407.147 582.437 409.372 581.662C411.116 581.054 412.983 579.734 413.521 578.728C414.059 577.722 414.5 570.874 414.5 563.511C414.5 547.628 413.196 542.756 407.325 536.706C401.574 530.78 395.848 528.559 384.837 527.983L375.648 527.502L373.624 519.885C372.511 515.695 371.304 511.029 370.942 509.517L370.283 506.767L445.642 506.759C493.446 506.755 523.366 506.368 527.47 505.702C539.204 503.798 546.718 498.045 551.771 487.097L554 482.267L554.274 386.705L554.548 291.142L559.159 288.902L563.769 286.662L568.911 290.076C578.246 296.275 579.66 296.057 589.66 286.872C596.93 280.194 602.5 272.6 602.5 269.365C602.5 268.233 600.894 264.704 598.931 261.524L595.362 255.742L598.642 247.504C600.447 242.974 602.3 238.744 602.762 238.104C603.223 237.464 605.875 236.628 608.656 236.246C612.016 235.783 614.699 234.664 616.658 232.909C619.4 230.452 619.647 229.632 620.19 221.19C620.511 216.197 620.447 209.5 620.048 206.306C619.109 198.786 616.691 196.299 608.814 194.749L602.89 193.584L599.195 184.84C597.163 180.032 595.5 175.78 595.5 175.393C595.5 175.005 597.075 172.349 599 169.491C604.626 161.137 604.048 159.247 592.108 146.944C584.826 139.441 581.041 136.767 577.705 136.767C576.663 136.767 573.117 138.507 569.826 140.635C564.016 144.39 563.757 144.457 560.921 142.943C559.314 142.086 555.3 140.399 552 139.194L546 137.003L544.5 129.891C542.635 121.046 540.474 118.688 533.299 117.667C526.975 116.767 516.725 116.78 510.5 117.696ZM528.417 139.816C529.013 142.593 529.5 145.468 529.5 146.205C529.5 149.082 533.184 151.886 538.921 153.379C542.177 154.226 548.806 156.91 553.651 159.343C558.496 161.776 563.277 163.767 564.276 163.767C565.275 163.767 568.547 162.204 571.546 160.293C574.546 158.382 577.307 156.807 577.682 156.793C578.057 156.779 579.294 158.073 580.43 159.669L582.497 162.571L578.998 167.769C577.074 170.629 575.5 173.844 575.5 174.915C575.5 175.985 577.266 180.103 579.424 184.064C581.582 188.026 584.085 193.967 584.986 197.267C585.887 200.567 587.116 204.269 587.719 205.494C588.802 207.698 594.668 210.431 599.5 210.982C601.656 211.228 602.041 211.832 602.301 215.377L602.601 219.487L596.684 220.651C593.429 221.291 590.015 222.646 589.096 223.661C588.177 224.676 586.376 228.909 585.093 233.067C583.81 237.225 581.127 243.599 579.13 247.232C577.134 250.864 575.5 254.829 575.5 256.043C575.5 257.257 577.142 260.634 579.149 263.548L582.798 268.846L580.039 271.726L577.28 274.606L572.25 270.992C566.483 266.849 562.219 266.419 557.795 269.536C553.094 272.849 547.323 275.389 540.194 277.285C533.527 279.057 529.5 282.095 529.5 285.353C529.5 286.076 529.013 288.941 528.417 291.718L527.334 296.767H522.54C516.958 296.767 515.986 295.865 514.995 289.767C513.555 280.905 512.543 279.958 500.5 276.202C497.475 275.258 491.678 272.738 487.617 270.601C479.445 266.301 478.514 266.319 471.82 270.904C466.741 274.382 466.441 274.397 463.542 271.311L461.235 268.856L464.26 264.061C468.973 256.594 468.99 255.862 464.641 247.65C462.49 243.589 459.749 236.892 458.549 232.767C457.349 228.642 455.483 224.508 454.402 223.581C453.322 222.654 450.023 221.395 447.072 220.782C441.264 219.576 439.835 217.647 441.502 213.262C442.188 211.457 443.423 210.828 447.333 210.29C453.885 209.389 455.825 207.353 458.48 198.589C459.7 194.562 462.474 187.892 464.644 183.767C469.083 175.329 469.066 173.903 464.442 167.183C460.885 162.013 460.866 161.711 463.908 158.853L466.317 156.59L471.645 160.179C474.576 162.152 478.008 163.767 479.272 163.767C480.536 163.767 484.935 161.984 489.047 159.806C493.159 157.627 499.645 154.915 503.46 153.779C511.726 151.317 514.029 148.872 515.023 141.498C515.411 138.621 515.929 135.929 516.173 135.517C516.418 135.105 519.029 134.767 521.976 134.767H527.334L528.417 139.816ZM511.991 164.221C494.691 167.365 479.32 180.379 472.966 197.262C465.836 216.205 470.502 237.708 484.883 252.175C516.425 283.907 569.553 264.44 574.076 219.494C576.575 194.651 557.74 169.529 532.622 164.205C524.724 162.531 521.275 162.534 511.991 164.221ZM537.14 184.586C544.031 188.064 550.766 194.929 553.824 201.591C557.132 208.799 556.913 222.32 553.365 229.887C549.747 237.602 544.459 243.131 537.257 246.731C531.954 249.381 530.124 249.767 522.878 249.767C511.376 249.767 504.764 247.191 497.42 239.847C489.658 232.085 487.157 225.357 487.725 213.767C488.214 203.792 490.239 199.099 497.318 191.53C504.908 183.416 512.247 180.59 524.104 181.216C529.497 181.5 532.636 182.312 537.14 184.586ZM424.5 202.142C424.5 202.898 424.22 204.919 423.877 206.633L423.254 209.749L266.957 210.008L110.661 210.267L108.08 212.691L105.5 215.116V331.36C105.5 395.294 105.78 448.332 106.121 449.222C107.943 453.971 98.481 453.767 317.027 453.767H521.654L524.577 450.844L527.5 447.921V380.844V313.767H530.418C532.023 313.767 534.048 313.494 534.918 313.16C536.353 312.61 536.5 320.266 536.498 395.41C536.497 487.964 536.871 483.059 529.516 486.932C526.168 488.695 517.817 488.767 316.733 488.767C89.257 488.767 103.284 489.122 98.668 483.253L96.5 480.497V345.037V209.576L98.646 206.562C102.964 200.498 92.79 200.849 265.75 200.806C399.799 200.773 424.5 200.981 424.5 202.142ZM424.5 229.156C424.5 232.447 428.108 234.976 434.436 236.119C438.153 236.791 441.094 237.889 441.527 238.767C441.934 239.592 443.73 243.775 445.519 248.062L448.77 255.857L445.135 261.135C440.084 268.469 440.283 271.201 446.403 278.555C449.1 281.796 453.865 286.632 456.99 289.303C464.132 295.404 467.235 295.582 474.572 290.311L479.659 286.656L487.937 290.211C492.49 292.167 496.663 293.767 497.211 293.767C497.759 293.767 498.745 297.024 499.402 301.004C500.713 308.939 503.242 312.767 507.174 312.767H509.5V374.267V435.767H316H122.5V331.767V227.767H273.5C401.704 227.767 424.5 227.977 424.5 229.156ZM334 264.712C332.9 265.163 331.249 266.372 330.332 267.399C329.414 268.426 320.257 293.342 309.982 322.767C299.707 352.192 290.445 378.7 289.4 381.674C286.96 388.617 287.002 391.864 289.573 395.132C292.081 398.321 298.046 398.765 301.443 396.014C303.014 394.742 309.355 377.815 324.554 334.328C336.074 301.364 345.5 273.78 345.5 273.031C345.5 270.053 342.407 265.93 339.381 264.875C337.632 264.266 336.156 263.796 336.101 263.83C336.045 263.865 335.1 264.262 334 264.712ZM212.262 291.369C174.02 327.365 174.5 326.859 174.5 331.137C174.5 333.396 175.305 335.529 176.75 337.095C178.612 339.114 216.881 375.082 236.19 392.961C240.369 396.83 242.074 397.767 244.94 397.767C251.175 397.767 255.141 391.362 252.384 385.748C251.623 384.198 238.718 371.363 223.708 357.225C208.697 343.088 196.547 331.167 196.708 330.734C196.868 330.302 209.426 318.242 224.613 303.935C239.801 289.627 252.513 277.175 252.863 276.262C255.141 270.328 251.123 264.767 244.558 264.767C240.656 264.767 239.602 265.635 212.262 291.369ZM384 266.922C379.729 269.258 378.16 274.395 380.426 278.629C380.935 279.58 393.768 292.014 408.944 306.259C424.119 320.505 436.415 332.425 436.268 332.749C436.121 333.074 423.85 344.781 409 358.766C394.15 372.751 381.452 384.885 380.782 385.73C380.112 386.576 379.549 388.876 379.532 390.843C379.481 396.511 385.505 400.883 390.618 398.889C394.248 397.474 456.854 338.206 457.838 335.252C458.31 333.838 458.43 331.623 458.105 330.329C457.535 328.058 396.576 269.596 392.125 267.052C389.483 265.542 386.606 265.496 384 266.922ZM354.428 516.017C355.74 521.104 357.016 525.83 357.264 526.517C357.619 527.504 349.066 527.767 316.607 527.767C293.998 527.767 275.5 527.467 275.5 527.1C275.5 526.733 276.689 522.008 278.142 516.6L280.785 506.767H316.414H352.042L354.428 516.017ZM392.028 546.962C395.678 548.625 397.5 552.706 397.5 559.217V564.767H316.5H235.5V558.49C235.5 551.737 237.077 548.284 240.857 546.759C244.374 545.339 388.893 545.533 392.028 546.962Z" fill="#5540AF"/>
</svg>
