<svg width="700" height="700" viewBox="0 0 700 700" fill="none" xmlns="http://www.w3.org/2000/svg">
<path fill-rule="evenodd" clip-rule="evenodd" d="M105.031 76.9459C92.656 78.7489 81.659 87.0619 76.082 98.8299L73 105.333V320.833V536.333L75.68 542.051C79.42 550.031 86.445 557.188 94.369 561.092C100.776 564.248 101.346 564.342 116.134 564.671L131.32 565.009L131.66 579.671C131.986 593.739 132.129 594.606 135.186 601.058C141.16 613.669 151.898 621.251 166.216 622.968C170.826 623.521 238.021 623.784 331 623.614C482.494 623.336 488.175 623.259 493 621.424C503.63 617.381 510.802 610.634 515.897 599.88L519 593.333L519.287 534.217L519.574 475.101L526.075 472.339C529.651 470.819 532.723 469.746 532.902 469.954C533.722 470.907 542.5 486.595 542.5 487.108C542.5 487.426 539.914 489.166 536.754 490.974C528.823 495.512 526.5 498.242 526.5 503.029C526.5 507.779 526.122 507.031 545.351 540.302C554.294 555.776 562.591 568.924 564.817 571.15C566.951 573.284 571.691 576.449 575.349 578.182C581.193 580.951 583.034 581.333 590.524 581.331C598.118 581.33 599.769 580.975 605.647 578.082C621.906 570.077 630.365 551.007 624.831 534.833C622.103 526.859 590.964 473.401 587.205 470.238C583.061 466.751 577.044 467.25 569.889 471.673C567.079 473.411 564.379 474.822 563.889 474.809C563.4 474.795 560.884 471.083 558.299 466.559L553.597 458.333L558.299 454.387C574.373 440.895 589.561 421.743 596.852 405.77C605.689 386.413 608.845 371.852 608.87 350.333C608.897 326.388 605.378 311.206 594.961 290.333C588.125 276.635 581.709 267.875 570.059 256.333C556.513 242.912 542.971 233.938 526.25 227.3L519.5 224.62V197.776C519.5 181.978 519.044 168.751 518.391 165.632C515.876 153.611 508.043 143.703 496.621 138.094C491.362 135.511 490.019 135.311 475.75 134.993L460.5 134.654V122.953C460.5 104.77 457.25 95.4659 447.881 86.8299C442.051 81.4559 434.089 77.8449 425.679 76.7599C416.955 75.6349 112.823 75.8109 105.031 76.9459ZM429.602 103.103C436.702 107.846 436.497 105.898 436.498 168.425L436.5 224.516L432.747 225.641C427.51 227.21 412.139 234.8 405.198 239.246C392.868 247.141 378.226 261.281 369.346 273.87C354.161 295.394 346.756 317.738 345.829 344.833C345.238 362.094 346.51 372.74 351.03 388.345C360.929 422.522 387.75 453.273 421.6 469.256C426.77 471.697 432.238 473.999 433.75 474.372L436.5 475.05V502.207C436.5 532.5 436.211 534.003 429.501 538.583L426.204 540.833L266.602 540.829C109.108 540.826 106.957 540.799 103.741 538.838C101.948 537.745 99.588 535.385 98.495 533.592C96.528 530.367 96.507 528.117 96.504 320.817C96.5 123.181 96.599 111.117 98.25 108.048C99.213 106.259 101.35 103.906 103 102.821C105.955 100.876 108.379 100.846 266.102 100.84L426.204 100.833L429.602 103.103ZM157.949 139.384C151.979 142.331 149.757 150.074 153.206 155.913C156.327 161.196 159.29 161.833 180.753 161.833C199.348 161.833 200.354 161.733 203.602 159.55C208.439 156.301 210.3 150.64 208.186 145.605C205.221 138.544 202.698 137.838 180.5 137.86C165.18 137.874 160.346 138.201 157.949 139.384ZM487.471 160.318C489.05 161.135 491.39 163.272 492.671 165.068C494.938 168.245 495.008 169.003 495.311 193.333L495.621 218.333H478.061H460.501V188.583L460.5 158.833H472.55C481.25 158.833 485.397 159.246 487.471 160.318ZM256.398 164.118C251.991 167.081 250.626 171.269 250.556 182.044L250.5 190.756L246.25 191.843C228.431 196.398 211.774 207.998 202.252 222.482L198.076 228.833H190.363H182.651L176.149 216.576C168.128 201.457 166.07 199.333 159.439 199.333C155.238 199.333 154.072 199.799 151.269 202.602C148.479 205.393 148.006 206.564 148.042 210.602C148.078 214.64 149.456 217.857 157.457 232.576C163.187 243.118 167.835 250.484 169.415 251.529C171.217 252.721 174.727 253.361 181 253.642L190 254.045L189.673 261.371C189.039 275.606 193.286 290.69 201.407 303.04C220.362 331.868 255.106 343.733 287.537 332.455C298.163 328.76 305.024 324.279 314.523 314.833C321.582 307.814 323.894 304.677 327.793 296.833C330.39 291.608 333.124 284.858 333.868 281.833L335.222 276.333L345.819 275.725C357.561 275.052 360.383 273.893 363.108 268.625C364.45 266.029 364.633 263.793 364.091 256.615C360.557 209.803 325.93 171.447 279.939 163.403C266.959 161.133 260.548 161.327 256.398 164.118ZM137.815 169.297C132.087 171.788 129.831 179.706 133.066 185.961C135.904 191.448 138.38 191.833 170.82 191.833C199.758 191.833 200.256 191.798 203.602 189.55C208.439 186.301 210.3 180.64 208.186 175.605C207.306 173.509 205.171 170.993 203.31 169.859C200.184 167.952 198.363 167.842 170.5 167.876C147.625 167.903 140.285 168.222 137.815 169.297ZM285.804 189.387L290 190.699L282.25 190.766C275.088 190.828 274.5 190.678 274.5 188.788C274.5 186.986 274.923 186.822 278.054 187.409C280.008 187.776 283.496 188.666 285.804 189.387ZM250.5 236.168V256.504L232.75 265.007C212.684 274.619 213.783 274.687 213.613 263.833C213.458 253.877 213.145 254.146 225.486 253.637C237.638 253.137 240.52 251.957 243.172 246.395C246.716 238.963 241.853 230.713 233.16 229.409C229.034 228.791 228.546 228.482 229.629 227.178C232.634 223.556 245.876 216.121 249.75 215.88C250.162 215.854 250.5 224.984 250.5 236.168ZM326.5 218.833L328.636 221.833H301.568H274.5V218.833V215.833H299.432H324.364L326.5 218.833ZM503.777 245.214C569.972 262.261 604.131 335.333 574.487 396.475C558.474 429.502 527.916 451.786 491.5 456.99C473.227 459.601 449.047 455.934 432.067 447.977C402.58 434.159 381.67 409.201 372.772 377.203C370.248 368.127 370.031 365.926 370.07 349.833C370.109 334.157 370.387 331.321 372.738 322.627C383.889 281.391 416.834 251.112 459 243.346C470.969 241.141 491.249 241.987 503.777 245.214ZM338.5 246.751C338.5 247.256 338.773 248.381 339.107 249.251C339.653 250.674 336.429 250.833 307.107 250.833H274.5V248.333V245.833H306.5C325.266 245.833 338.5 246.213 338.5 246.751ZM459.122 249.886C445.917 252.1 426.889 260.553 415.757 269.152C388.187 290.447 372.799 325.576 376.342 359.136C380.658 400.023 406.861 432.994 445.5 446.158C455.508 449.567 463.837 450.816 476.619 450.825C516.892 450.854 550.39 430.157 568.049 394.333C575.466 379.287 577.604 370.656 578.205 353.333C578.601 341.923 578.327 337.575 576.725 329.828C568.411 289.625 537.444 258.666 497.292 250.417C489.036 248.72 467.833 248.426 459.122 249.886ZM495.683 274.752C522.37 281.577 541.871 299.709 551.158 326.333C553.757 333.782 553.947 335.401 553.916 349.833C553.886 364.091 553.663 365.974 551.132 373.333C542.085 399.64 521.996 418.252 495.388 424.981C484.32 427.779 464.508 427.234 454.5 423.855C430.403 415.72 411.027 396.758 403.91 374.347C394.958 346.156 401.289 317.874 421.302 296.66C432.86 284.407 446.133 277.203 464 273.482C470.107 272.21 488.65 272.953 495.683 274.752ZM310.5 276.94C310.5 277.549 309.083 281.036 307.352 284.69C302.633 294.647 292.287 304.486 282.058 308.745C272.946 312.538 263.222 313.649 254 311.951C246.224 310.518 235.177 304.99 229.55 299.715L225.1 295.543L244.55 285.741L264 275.94L287.25 275.886C303.614 275.849 310.5 276.161 310.5 276.94ZM138.915 365.254C137.219 365.993 134.856 367.836 133.665 369.35C131.609 371.964 131.5 373.109 131.5 392.068V412.033L134.803 415.336C138.949 419.482 143.852 420.214 163.723 419.655C179.321 419.217 181.46 418.587 184.55 413.519C186.289 410.667 186.493 408.391 186.493 391.833C186.493 364.326 185.98 363.809 158.782 363.872C147.01 363.9 141.079 364.312 138.915 365.254ZM203.825 365.292C195.489 368.918 194.95 381.15 202.896 386.357C204.944 387.699 209.961 387.87 239.965 387.621L274.666 387.333L277.583 384.067C282.765 378.266 280.999 368.721 274.143 365.468C271.172 364.058 266.31 363.838 238.849 363.872C214.028 363.903 206.299 364.216 203.825 365.292ZM162.5 391.333C162.5 394.666 162.333 394.833 159 394.833C155.667 394.833 155.5 394.666 155.5 391.333C155.5 388 155.667 387.833 159 387.833C162.333 387.833 162.5 388 162.5 391.333ZM206.619 395.815C204.759 396.266 201.936 397.935 200.346 399.525C195.33 404.541 196.575 413.631 202.792 417.392C205.865 419.251 208.335 419.333 261.5 419.333C321.977 419.333 319.885 419.529 323.55 413.519C326.02 409.468 326.02 405.198 323.55 401.147C319.902 395.164 321.744 395.348 263.5 395.165C234.075 395.072 208.478 395.365 206.619 395.815ZM140.514 448.809C138.597 449.286 135.785 451.069 134.264 452.771L131.5 455.865V475.714C131.5 494.329 131.63 495.728 133.588 498.218C137.581 503.294 139.972 503.833 158.482 503.833C185.908 503.833 186.491 503.265 186.496 476.551C186.502 448.677 186.278 448.427 161.046 448.137C151.671 448.03 142.431 448.332 140.514 448.809ZM206.619 448.836C204.759 449.275 201.936 450.935 200.346 452.525C195.33 457.541 196.575 466.631 202.792 470.392C205.73 472.17 208.398 472.361 234.5 472.661C269.633 473.065 272.788 472.745 277.197 468.336C279.974 465.559 280.5 464.303 280.5 460.449C280.5 454.627 276.851 450.154 271 448.804C266.153 447.685 211.377 447.713 206.619 448.836ZM162.5 476.333C162.5 479.666 162.333 479.833 159 479.833C155.667 479.833 155.5 479.666 155.5 476.333C155.5 473 155.667 472.833 159 472.833C162.333 472.833 162.5 473 162.5 476.333ZM200.918 483.215C199.038 485.095 197.45 487.691 197.389 488.983C197.173 493.577 197.682 496.364 199.159 498.667C202.509 503.891 201.575 503.833 283.218 503.829C356.569 503.826 359.103 503.763 362.196 501.877C367.14 498.863 368.843 495.569 368.237 490.196C367.88 487.028 366.9 484.779 365.087 482.965L362.455 480.333L283.395 480.065L204.336 479.797L200.918 483.215ZM495.499 534.333C495.497 593.413 495.671 591.841 488.602 596.563L485.204 598.833H325.22C166.564 598.833 165.209 598.816 161.974 596.817C156.733 593.578 155.5 589.695 155.5 576.432V564.833H291.395C423.652 564.833 427.46 564.78 433.651 562.868C443.37 559.866 451.002 553.227 456 543.428L460 535.585L460.332 508.459L460.663 481.333H478.082H495.5L495.499 534.333ZM589.03 518.333C602.712 541.994 604.321 546.405 601.074 551.361C598.805 554.824 593.662 557.826 590 557.826C583.705 557.826 581.446 555.153 567.904 531.692C560.807 519.394 555 508.981 555 508.551C555 507.837 575.69 495.673 576.121 496.134C576.224 496.243 582.033 506.233 589.03 518.333Z" fill="#5540AF"/>
</svg>
