<svg width="700" height="700" viewBox="0 0 700 700" fill="none" xmlns="http://www.w3.org/2000/svg">
<path fill-rule="evenodd" clip-rule="evenodd" d="M76.329 82.4208C74.585 83.1788 72.672 84.7068 72.079 85.8158C71.388 87.1068 71 97.0358 71 113.447C71 140.193 71.513 143.795 75.545 145.342C76.435 145.683 84.327 145.963 93.082 145.963H109V303.416C109 423.36 109.285 461.494 110.195 463.491C112.727 469.049 111.659 468.963 178.45 468.963C212.303 468.963 240 469.193 240 469.474C240 469.755 224.7 501.025 206 538.963C187.3 576.901 172 608.643 172 609.501C172 610.36 172.678 612.373 173.507 613.976C175.831 618.471 180.212 619.148 204.596 618.783C225.869 618.464 225.969 618.452 228.418 615.963C229.77 614.588 246.895 581.063 266.472 541.463L302.066 469.463L349.855 469.204L397.644 468.944L434.072 542.601C468.494 612.203 470.686 616.337 473.879 617.678C476.544 618.798 482.01 619.031 499.713 618.78L522.168 618.463L525.084 615.197C526.688 613.401 528 611.042 528 609.956C528 608.869 512.7 576.955 494 539.036C475.3 501.117 460 469.838 460 469.528C460 469.217 487.697 468.963 521.55 468.963C588.341 468.963 587.273 469.049 589.805 463.491C590.715 461.494 591 423.36 591 303.416V145.963H606.918C615.673 145.963 623.565 145.683 624.455 145.342C628.473 143.8 629 140.163 629 113.963C629 86.0858 628.613 84.0698 622.881 82.0708C620.583 81.2698 544.794 80.9738 349.601 81.0018C122.262 81.0348 78.998 81.2598 76.329 82.4208ZM611 113.463V127.963H350H89V113.463V98.9628H350H611V113.463ZM572.753 298.713L573.006 450.963H350.003H127V299.13C127 215.621 127.301 146.995 127.669 146.627C128.037 146.26 228.274 146.072 350.419 146.211L572.5 146.463L572.753 298.713ZM506.092 190.494C499.103 192.444 492.329 197.325 488.277 203.331C477.255 219.668 483.711 241.97 501.878 250.311C508.353 253.284 520.647 253.284 527.122 250.311C533.451 247.405 539.631 241.586 542.823 235.526C545.169 231.073 545.491 229.318 545.495 220.963C545.5 212.311 545.237 210.988 542.554 206.144C535.395 193.221 520 186.613 506.092 190.494ZM328.923 199.886C324.314 204.495 324.888 207.944 331.405 214.787L336.809 220.463L331.405 226.26C327.115 230.86 326 232.741 326 235.375C326 241.824 332.872 246.638 338.191 243.914C339.461 243.264 342.624 240.677 345.219 238.166L349.938 233.599L355.895 239.281C359.308 242.537 362.758 244.963 363.975 244.963C367.598 244.963 371.734 242.164 372.853 238.956C374.313 234.767 372.944 231.542 367.231 225.713L362.575 220.963L367.231 216.213C373.484 209.832 374.573 206.787 372.273 202.105C371.031 199.577 369.537 198.227 367.283 197.595C362.974 196.386 359.383 197.978 353.966 203.498L349.631 207.915L343.89 202.439C336.978 195.847 333.548 195.262 328.923 199.886ZM159.357 207.933C156.247 209.22 154 212.915 154 216.745C154 219.379 155.055 221.198 159 225.369C161.75 228.277 164 231.08 164 231.597C164 232.115 161.75 234.754 159 237.463C154.725 241.674 154 242.944 154 246.223C154 251.203 157.758 254.963 162.734 254.963C165.54 254.963 167.219 253.96 171.824 249.536L177.471 244.108L183.161 249.536C187.783 253.944 189.495 254.963 192.28 254.963C197.242 254.963 201 251.196 201 246.223C201 242.944 200.275 241.674 196 237.463C193.25 234.754 191 232.115 191 231.597C191 231.08 193.25 228.277 196 225.369C200.043 221.095 201 219.412 201 216.579C201 211.509 197.329 207.563 192.614 207.563C189.562 207.563 188.11 208.41 183.703 212.763C180.807 215.623 178.015 217.963 177.5 217.963C176.985 217.963 174.299 215.742 171.531 213.027C166.251 207.847 162.927 206.456 159.357 207.933ZM520.456 208.942C525.499 211.383 528.001 215.424 527.996 221.117C527.992 226.602 525.288 231.124 520.717 233.293C511.031 237.889 501.013 231.701 501.004 221.117C500.999 215.456 503.467 211.436 508.467 208.961C513.509 206.465 515.334 206.462 520.456 208.942ZM417.5 270.56C404.85 273.538 393.537 276.472 392.36 277.079C387.941 279.359 386.727 286.074 389.984 290.216C392.965 294.006 395.811 294.202 407.551 291.428C413.445 290.035 418.419 289.048 418.605 289.234C419.498 290.128 403.568 301.449 396.436 304.988C373.431 316.404 353.056 313.567 327.809 295.431C309.885 282.555 296.491 277.759 278.5 277.773C259.761 277.788 244.215 283.391 226.994 296.337C213.328 306.609 194 328.159 194 333.123C194 336.562 196.858 340.718 199.97 341.803C204.677 343.444 208.206 341.6 213.653 334.653C226.956 317.687 244.605 303.936 259.834 298.671C267.145 296.143 269.986 295.68 278 295.709C293.868 295.767 300.469 298.483 325.131 315.103C334.24 321.242 341.918 324.8 352.002 327.555C360.63 329.912 377.963 329.937 387.5 327.606C397.361 325.196 411.537 318.036 421.503 310.432C426.176 306.867 430 304.363 430 304.868C430 305.374 429.325 309.314 428.5 313.625C426.279 325.234 426.497 329.142 429.527 331.989C432.968 335.221 438.237 335.187 441.484 331.913C443.623 329.755 444.515 326.099 448.953 301.286C451.725 285.788 453.702 272.288 453.347 271.286C452.992 270.283 451.791 268.451 450.677 267.213C447.743 263.954 443.921 264.34 417.5 270.56ZM451.923 352.886C447.299 357.51 447.881 360.975 454.427 367.787L459.855 373.434L454.427 379.124C450.218 383.538 449 385.519 449 387.955C449 392.381 450.63 394.91 454.533 396.541C459.003 398.409 462.134 397.189 468.252 391.192L473.003 386.535L478.486 391.949C485.069 398.45 489.221 399.197 493.727 394.69C498.234 390.184 497.487 386.032 490.986 379.449L485.572 373.966L490.229 369.215C496.226 363.097 497.446 359.966 495.578 355.496C493.947 351.593 491.418 349.963 486.992 349.963C484.556 349.963 482.575 351.181 478.161 355.39L472.471 360.818L466.824 355.39C460.012 348.844 456.547 348.262 451.923 352.886ZM280.077 362.552C277.592 364.642 277 365.905 277 369.112C277 372.52 277.729 373.853 282.145 378.523L287.29 383.963L282.145 389.403C277.774 394.024 277 395.426 277 398.715C277 405.334 282.926 409.479 288.869 407.017C290.426 406.372 293.663 403.844 296.063 401.399L300.427 396.953L305.528 401.991C312.07 408.452 316.158 409.384 320.805 405.473C323.374 403.312 324 402.035 324 398.955C324 395.742 323.174 394.22 318.878 389.52L313.755 383.915L318.878 378.499C323.272 373.853 324 372.518 324 369.112C324 365.905 323.408 364.642 320.923 362.552C315.924 358.346 312.615 359.182 304.959 366.585L300.418 370.976L296.459 366.887C289.29 359.483 285.055 358.363 280.077 362.552ZM277.577 478.213C275.18 483.3 260.57 513.001 245.111 544.213L217.003 600.963H206.394C197.618 600.963 195.881 600.717 196.334 599.536C196.635 598.752 211.195 569.056 228.691 533.547L260.5 468.985L271.217 468.974L281.934 468.963L277.577 478.213ZM471.496 533.967C489.094 569.702 503.644 599.395 503.829 599.951C504.043 600.591 500.272 600.963 493.575 600.963H482.983L451.89 538.213C434.789 503.701 420.162 474.001 419.386 472.213L417.973 468.963L428.737 468.979L439.5 468.995L471.496 533.967Z" fill="#5540AF"/>
</svg>
